<svg width="359" height="512" fill="none" xmlns="http://www.w3.org/2000/svg"><path class="lamp-fill" d="M102.4 422.4v-95.727c-54.7-28.527-89.6-85.53-89.6-147.473 0-91.75 74.65-166.4 166.4-166.4s166.4 74.65 166.4 166.4c0 61.943-34.901 118.946-89.6 147.473V422.4H102.4Zm76.8-281.6c-21.171 0-38.4 17.229-38.4 38.4 0 17.365 11.853 32.58 28.817 36.992l9.583 2.492 9.583-2.492c16.973-4.412 28.817-19.627 28.817-36.992 0-21.171-17.229-38.4-38.4-38.4Z" fill="#8b6bff"/><path d="M256 422.4H102.4v76.8H256v-76.8Zm-76.8-204.8c-21.171 0-38.4-17.229-38.4-38.4s17.229-38.4 38.4-38.4 38.4 17.229 38.4 38.4-17.229 38.4-38.4 38.4Z" fill="#141414"/><path d="M115.2 512h128c14.14 0 25.6-11.46 25.6-25.6V334.242c54.929-31.804 89.6-90.974 89.6-155.042C358.4 80.384 278.007 0 179.2 0 80.393 0 0 80.384 0 179.2c0 64.068 34.671 123.238 89.6 155.042V486.4c0 14.14 11.46 25.6 25.6 25.6Zm128-25.6h-128v-51.2h128v51.2ZM25.6 179.2c0-84.83 68.77-153.6 153.6-153.6s153.6 68.77 153.6 153.6c0 61.961-36.762 115.209-89.6 139.503V409.6H192V228.582c22.016-5.726 38.4-25.591 38.4-49.382 0-28.228-22.972-51.2-51.2-51.2S128 150.972 128 179.2c0 23.791 16.384 43.657 38.4 49.382V409.6h-51.2v-90.897C62.362 294.409 25.6 241.161 25.6 179.2Zm153.6 25.6c-14.14 0-25.6-11.46-25.6-25.6s11.46-25.6 25.6-25.6 25.6 11.46 25.6 25.6-11.46 25.6-25.6 25.6Z" fill="#fff"/></svg>